<svg xmlns="http://www.w3.org/2000/svg" width="760" height="526" viewBox="0 0 760 526">
  <title>NyatiDraw editor layout study</title>
  <desc>Concept illustration, not a screenshot. Neutral tool panels surround an original pencil sketch and layers.</desc>
  <defs>
    <pattern id="checker" width="16" height="16" patternUnits="userSpaceOnUse"><rect width="16" height="16" fill="#e9e9e7"/><path d="M0 0h8v8H0zM8 8h8v8H8z" fill="#d9d9d7"/></pattern>
    <pattern id="grain" width="7" height="7" patternUnits="userSpaceOnUse"><circle cx="1" cy="2" r=".6" fill="#424242" opacity=".25"/><circle cx="5" cy="5" r=".8" fill="#424242" opacity=".19"/></pattern>
    <clipPath id="page"><rect x="157" y="88" width="407" height="349"/></clipPath>
  </defs>
  <rect width="760" height="526" fill="#252525"/>
  <rect width="760" height="28" fill="#303030"/>
  <text x="13" y="19" fill="#ddd" font-family="Segoe UI, sans-serif" font-size="11">NyatiDraw</text>
  <text x="108" y="19" fill="#929292" font-family="Segoe UI, sans-serif" font-size="10">sketch.ntdr</text>
  <path d="M704 15h8m15-4h8v8h-8zm21 0 7 7m0-7-7 7" fill="none" stroke="#969696"/>
  <rect y="28" width="760" height="34" fill="#5a5a5a"/>
  <g fill="none" stroke="#eee" stroke-width="1.7" stroke-linecap="round" stroke-linejoin="round">
    <path d="M14 38h14m-14 6h14m-14 6h14M45 49V38h8l3 3h11v8zM84 37h14v15H84zm3 0v5h8v-5m-8 15v-7h8v7M119 39l-5 5 5 5m-5-5h9q7 0 7 7M151 39l5 5-5 5m5-5h-9q-7 0-7 7M198 38v14m-7-7h14M229 38v14m-7-7h14"/>
    <path d="M177 34v22M264 34v22M319 39h-5v5m18-5h5v5m0 6v5h-5m-13 0h-5v-5M350 45h11M409 39v12m-6-6h12M435 49a8 8 0 1 1 1-10m0-5v6h-6"/>
  </g>
  <text x="282" y="49" fill="#eee" font-family="Segoe UI, sans-serif" font-size="10">100%</text>
  <rect x="473" y="37" width="17" height="17" rx="2" fill="#f5f5f5" stroke="#333"/><rect x="466" y="32" width="17" height="17" rx="2" fill="#303030" stroke="#ddd"/>
  <g stroke="#414141"><rect x="505" y="37" width="16" height="16" fill="#353535"/><rect x="525" y="37" width="16" height="16" fill="#797975"/><rect x="545" y="37" width="16" height="16" fill="#f3f3f0"/></g>
  <g fill="#737373"><rect x="0" y="68" width="36" height="449" fill="#5a5a5a"/><rect x="42" y="68" width="93" height="137"/><rect x="42" y="211" width="93" height="164"/><rect x="42" y="381" width="93" height="136"/><rect x="595" y="68" width="165" height="130"/><rect x="595" y="204" width="165" height="139"/><rect x="595" y="349" width="165" height="168"/></g>
  <g fill="#494949"><rect x="42" y="68" width="93" height="15"/><rect x="42" y="211" width="93" height="15"/><rect x="42" y="381" width="93" height="15"/><rect x="595" y="68" width="165" height="15"/><rect x="595" y="204" width="165" height="15"/><rect x="595" y="349" width="165" height="15"/></g>
  <g fill="#ededed" font-family="Segoe UI, sans-serif" font-size="8.5"><text x="49" y="79">SUBTOOLS</text><text x="49" y="222">PROPERTIES</text><text x="49" y="392">SIZE</text><text x="602" y="79">NAVIGATOR</text><text x="602" y="215">COLOR</text><text x="602" y="360">LAYERS</text></g>
  <g fill="none" stroke="#ddd" stroke-width="1.6" stroke-linecap="round" stroke-linejoin="round"><path d="M18 80v15m-7-7h14m-14 19 14 14m-13-2 14-13M13 132q20-6 12 10t-12-1q-6-9 3-9M10 161h16v16H10zM11 208l13-13 4 4-13 13-5 2zM10 242l15-17 2 5-14 14zM12 273q-4-9 6-12l6-9 4 4-9 10q1 8-7 7M10 302l10-13 9 8-10 13H15zM10 334l9-13 10 13zM11 356h17v17H11z"/><path d="M8 186h20M8 282h20M8 315h20" stroke="#999"/></g>
  <rect x="5" y="190" width="27" height="30" rx="2" fill="none" stroke="#f7f7f7"/>
  <rect x="48" y="89" width="81" height="47" rx="2" fill="#565656" stroke="#ddd"/>
  <path d="M54 115q24-32 36-5t32-11" fill="none" stroke="#ddd" stroke-width="1.7" stroke-dasharray=".2 .7" stroke-linecap="round"/><path d="M54 165q21-26 36-7t32-9" fill="none" stroke="#e4e4e4" stroke-width="3.5" opacity=".85"/>
  <g fill="#eee" font-family="Segoe UI, sans-serif" font-size="9"><text x="53" y="130">2H pencil</text><text x="53" y="184">2B pencil</text><text x="51" y="279">Size</text><text x="111" y="279" text-anchor="end">5.0</text><text x="51" y="315">Opacity</text><text x="122" y="315" text-anchor="end">100</text></g>
  <rect x="50" y="233" width="77" height="31" fill="#5a5a5a"/><path d="M56 253q18-25 34-5t30-7" fill="none" stroke="#eee" stroke-width="2"/>
  <path d="M51 290h73M51 326h73" stroke="#484848" stroke-width="4"/><path d="M51 290h27M51 326h72" stroke="#ccc" stroke-width="4"/>
  <g fill="#d5d5d5"><circle cx="55" cy="410" r="2"/><circle cx="75" cy="410" r="3"/><circle cx="95" cy="410" r="5"/><circle cx="119" cy="410" r="3"/><circle cx="58" cy="443" r="2"/><circle cx="87" cy="443" r="3"/><circle cx="116" cy="443" r="4"/><circle cx="58" cy="481" r="5"/><circle cx="87" cy="481" r="7"/><circle cx="116" cy="481" r="10"/></g>
  <g fill="#eee" font-family="Segoe UI, sans-serif" font-size="8" text-anchor="middle"><text x="58" y="457">1</text><text x="87" y="457">3</text><text x="116" y="457">5</text><text x="58" y="507">10</text><text x="87" y="507">20</text><text x="116" y="507">40</text></g>
  <rect x="156" y="87" width="409" height="351" fill="url(#checker)" stroke="#080808" stroke-width="2"/>
  <g clip-path="url(#page)">
    <rect x="174" y="105" width="372" height="314" fill="#f4f3ed"/>
    <path d="M219 327q21-29 56-22m-69 39q102 45 297-11M247 355q98 18 189-3" fill="none" stroke="#888781" stroke-width="1.8" opacity=".55"/>
    <path d="M271 281q-24-42 1-75l-12-45q26 1 44 25 48-29 95-1 13-29 38-31l-7 54q29 47-1 82-5 41-15 55-26 13-57 1-37 16-63 1-18-24-23-65z" fill="#d8d6c9" stroke="#454643" stroke-width="2.4" stroke-linejoin="round"/>
    <path d="M271 281q-24-42 1-75l-12-45q26 1 44 25 48-29 95-1 13-29 38-31l-7 54q29 47-1 82-5 41-15 55-26 13-57 1-37 16-63 1-18-24-23-65z" fill="url(#grain)"/>
    <path d="M273 172l5 26 17-7m111 3 20-27-1 35M299 290q4 26 4 45m102-48-3 48M431 298q47 16 57-9 11-29-4-34-12-4-15 11" fill="none" stroke="#53544e" stroke-width="2.5" stroke-linecap="round"/>
    <path d="M296 240q11-10 19 0m74-1q10-11 19 0" fill="none" stroke="#33352f" stroke-width="3" stroke-linecap="round"/>
    <path d="M345 252h12l-6 6z" fill="#56574f"/><path d="M351 258q-9 12-16 2m16-2q8 11 15 1" fill="none" stroke="#56574f" stroke-width="2" stroke-linecap="round"/>
    <path d="M310 267l-21-3m23 10-21 6m96-12 24-6m-23 13 23 4M281 314l-4 11m8-8-3 11m137-12 3 9" fill="none" stroke="#66675e" stroke-width="1.3"/>
    <path d="M252 152q88-58 189 6m-190 44q-44 101 34 151m165-142q29 103-31 152" fill="none" stroke="#8d8e82" stroke-width="1" stroke-dasharray="3 5" opacity=".7"/>
    <path d="M209 185l18-7m-11-9 4 24M477 354l9-13 8 10m-14-3 8-7" fill="none" stroke="#909185" stroke-width="1.2"/>
  </g>
  <rect x="621" y="94" width="113" height="76" fill="#dadad7" stroke="#2f2f2f"/><path d="M653 143q-9-17 0-28l-4-8 14 6q17-10 32 0l12-9-1 19q10 15 0 27-20 8-43 0z" fill="#b4b4a8" stroke="#77776e"/><rect x="625" y="98" width="105" height="69" fill="none" stroke="#f7f7f7"/>
  <g fill="#eee" font-family="Segoe UI, sans-serif" font-size="8"><text x="615" y="187">1:1</text><text x="669" y="187">100%</text><text x="719" y="187">+</text></g>
  <circle cx="676" cy="275" r="44" fill="none" stroke="#9c9c98" stroke-width="12"/><circle cx="676" cy="275" r="44" fill="none" stroke="#d2d2ce" stroke-width="12" stroke-dasharray="69 208" transform="rotate(-90 676 275)"/>
  <rect x="653" y="252" width="46" height="46" fill="#555" stroke="#b1b1ac"/><path d="M653 252h46v46z" fill="#8a8a86"/><circle cx="663" cy="287" r="4" fill="none" stroke="#eee"/>
  <g fill="#ddd" stroke="#505050"><rect x="620" y="326" width="15" height="10" fill="#353535"/><rect x="641" y="326" width="15" height="10" fill="#777770"/><rect x="662" y="326" width="15" height="10" fill="#d8d6c9"/><rect x="683" y="326" width="15" height="10" fill="#f4f3ed"/></g>
  <path d="M607 377h13m-6-6v12M640 373h10l3 3h8v9h-21z" fill="none" stroke="#ddd" stroke-width="1.4"/>
  <rect x="602" y="394" width="151" height="55" fill="#555" stroke="#ddd"/><rect x="625" y="400" width="38" height="42" fill="#eee"/><path d="M629 428q-4-15 7-15m-4-7 7 7m10-3 9-5m-3 8q9 19-6 24" fill="none" stroke="#62625c" stroke-width="1.4"/><rect x="625" y="460" width="38" height="42" fill="#deddd5"/>
  <g fill="#eee" font-family="Segoe UI, sans-serif" font-size="9"><text x="674" y="416">Sketch</text><text x="674" y="433" font-size="8">100%</text><text x="674" y="476">Color</text><text x="674" y="493" font-size="8">100%</text></g>
  <g fill="none" stroke="#eee" stroke-width="1.1"><ellipse cx="612" cy="419" rx="6" ry="3"/><circle cx="612" cy="419" r="1"/><ellipse cx="612" cy="479" rx="6" ry="3"/><circle cx="612" cy="479" r="1"/></g>
  <rect y="519" width="760" height="7" fill="#303030"/>
</svg>
