<?xml version="1.0" encoding="UTF-8" standalone="no"?>
<svg xmlns="http://www.w3.org/2000/svg" xmlns:xlink="http://www.w3.org/1999/xlink" xmlns:inkscape="http://www.inkscape.org/namespaces/inkscape" width="1920" height="1080" viewBox="0 0 1920 1080">
  <title>NyatiDraw — exploratory editor redesign</title>
  <desc>Exploratory, unapproved vector mockup for later manual iteration in Inkscape. Canvas checkerboard is confined to the drawable canvas. Icons use Lucide Static 1.39.0 paths (ISC license).</desc>
  <metadata>
    <design-status>exploratory / unapproved / intended for manual refinement</design-status>
    <icon-provenance>Lucide Static 1.39.0, ISC, https://github.com/lucide-icons/lucide</icon-provenance>
  </metadata>
  <defs>
    <pattern id="checker" width="24" height="24" patternUnits="userSpaceOnUse">
      <rect width="24" height="24" fill="#fbfcfd"/>
      <path d="M0 0h12v12H0zm12 12h12v12H12z" fill="#e6ebee"/>
    </pattern>
    <linearGradient id="canvasGlaze" x1="0" y1="0" x2="0" y2="1">
      <stop offset="0" stop-color="#ffffff" stop-opacity=".20"/>
      <stop offset="1" stop-color="#ffffff" stop-opacity="0"/>
    </linearGradient>
    <linearGradient id="svSquare" x1="0" y1="0" x2="1" y2="1">
      <stop offset="0" stop-color="#ffffff"/>
      <stop offset=".48" stop-color="#51d7e5"/>
      <stop offset="1" stop-color="#082f38"/>
    </linearGradient>
    <linearGradient id="strokeCyan" x1="0" y1="0" x2="1" y2=".35">
      <stop offset="0" stop-color="#34dfe8"/>
      <stop offset=".45" stop-color="#2bb5d2"/>
      <stop offset="1" stop-color="#167796"/>
    </linearGradient>
    <linearGradient id="strokeWarm" x1="0" y1="0" x2="1" y2="0">
      <stop offset="0" stop-color="#ffbd6b"/>
      <stop offset="1" stop-color="#e37558"/>
    </linearGradient>
    <g id="lucide-pencil" fill="none" stroke="currentColor" stroke-width="2" stroke-linecap="round" stroke-linejoin="round">
      <path d="M21.174 6.812a1 1 0 0 0-3.986-3.987L3.842 16.174a2 2 0 0 0-.5.83l-1.321 4.352a.5.5 0 0 0 .623.622l4.353-1.32a2 2 0 0 0 .83-.497z"/><path d="m15 5 4 4"/>
    </g>
    <g id="lucide-highlighter" fill="none" stroke="currentColor" stroke-width="2" stroke-linecap="round" stroke-linejoin="round">
      <path d="m9 11-6 6v3h9l3-3"/><path d="m22 12-4.6 4.6a2 2 0 0 1-2.8 0l-5.2-5.2a2 2 0 0 1 0-2.8L14 4"/>
    </g>
    <g id="lucide-paintbrush" fill="none" stroke="currentColor" stroke-width="2" stroke-linecap="round" stroke-linejoin="round">
      <path d="m14.622 17.897-10.68-2.913"/><path d="M18.376 2.622a1 1 0 1 1 3.002 3.002L17.36 9.643a.5.5 0 0 0 0 .707l.944.944a2.41 2.41 0 0 1 0 3.408l-.944.944a.5.5 0 0 1-.707 0L8.354 7.348a.5.5 0 0 1 0-.707l.944-.944a2.41 2.41 0 0 1 3.408 0l.944.944a.5.5 0 0 0 .707 0z"/><path d="M9 8c-1.804 2.71-3.97 3.46-6.583 3.948a.507.507 0 0 0-.302.819l7.32 8.883a1 1 0 0 0 1.185.204C12.735 20.405 16 16.792 16 15"/>
    </g>
    <g id="lucide-eraser" fill="none" stroke="currentColor" stroke-width="2" stroke-linecap="round" stroke-linejoin="round">
      <path d="M21 21H8a2 2 0 0 1-1.42-.587l-3.994-3.999a2 2 0 0 1 0-2.828l10-10a2 2 0 0 1 2.829 0l5.999 6a2 2 0 0 1 0 2.828L12.834 21"/><path d="m5.082 11.09 8.828 8.828"/>
    </g>
    <g id="lucide-undo" fill="none" stroke="currentColor" stroke-width="2" stroke-linecap="round" stroke-linejoin="round"><path d="M9 14 4 9l5-5"/><path d="M4 9h10.5a5.5 5.5 0 0 1 5.5 5.5a5.5 5.5 0 0 1-5.5 5.5H11"/></g>
    <g id="lucide-redo" fill="none" stroke="currentColor" stroke-width="2" stroke-linecap="round" stroke-linejoin="round"><path d="m15 14 5-5-5-5"/><path d="M20 9H9.5A5.5 5.5 0 0 0 4 14.5A5.5 5.5 0 0 0 9.5 20H13"/></g>
    <g id="lucide-layers" fill="none" stroke="currentColor" stroke-width="2" stroke-linecap="round" stroke-linejoin="round"><path d="M12.83 2.18a2 2 0 0 0-1.66 0L2.6 6.08a1 1 0 0 0 0 1.83l8.58 3.91a2 2 0 0 0 1.66 0l8.58-3.9a1 1 0 0 0 0-1.83z"/><path d="M2 12a1 1 0 0 0 .58.91l8.6 3.91a2 2 0 0 0 1.65 0l8.58-3.9A1 1 0 0 0 22 12"/><path d="M2 17a1 1 0 0 0 .58.91l8.6 3.91a2 2 0 0 0 1.65 0l8.58-3.9A1 1 0 0 0 22 17"/></g>
    <g id="lucide-eye" fill="none" stroke="currentColor" stroke-width="2" stroke-linecap="round" stroke-linejoin="round"><path d="M2.062 12.348a1 1 0 0 1 0-.696 10.75 10.75 0 0 1 19.876 0 1 1 0 0 1 0 .696 10.75 10.75 0 0 1-19.876 0"/><circle cx="12" cy="12" r="3"/></g>
    <g id="lucide-plus" fill="none" stroke="currentColor" stroke-width="2" stroke-linecap="round"><path d="M5 12h14"/><path d="M12 5v14"/></g>
    <g id="lucide-minus" fill="none" stroke="currentColor" stroke-width="2" stroke-linecap="round"><path d="M5 12h14"/></g>
    <g id="lucide-rotate" fill="none" stroke="currentColor" stroke-width="2" stroke-linecap="round" stroke-linejoin="round"><path d="M21 12a9 9 0 1 1-9-9c2.52 0 4.93 1 6.74 2.74L21 8"/><path d="M21 3v5h-5"/></g>
  </defs>

  <g inkscape:groupmode="layer" inkscape:label="Chrome" id="chrome">
    <rect width="1920" height="1080" fill="#101215"/>
    <rect width="1920" height="34" fill="#171a1e"/>
    <rect y="34" width="1920" height="42" fill="#1b1f23"/>
    <path d="M0 34H1920M0 76H1920" stroke="#30363d"/>
    <rect x="18" y="8" width="18" height="18" rx="3" fill="#20262b" stroke="#48535b"/>
    <path d="M23 20V13l8 7v-7" fill="none" stroke="#41dce8" stroke-width="1.5" stroke-linecap="round" stroke-linejoin="round"/>
    <text x="48" y="21" fill="#f2f5f6" font-family="Segoe UI, sans-serif" font-size="13" font-weight="600">NyatiDraw</text>
    <text x="164" y="21" fill="#aab3ba" font-family="Segoe UI, sans-serif" font-size="12">untitled.ndraw</text>
    <circle cx="283" cy="17" r="3" fill="#55d19d"/><text x="292" y="21" fill="#92a09e" font-family="Segoe UI, sans-serif" font-size="11">saved</text>
    <text x="1575" y="21" fill="#89929a" font-family="Segoe UI, sans-serif" font-size="11">3840 × 2160 px</text>
    <path d="M1796 17h12M1802 11v12" stroke="#a7b0b7" stroke-width="1.4"/><path d="M1841 12l10 10m0-10-10 10" stroke="#a7b0b7" stroke-width="1.4"/>
    <g fill="#bac3c9" stroke="#bac3c9"><use xlink:href="#lucide-undo" transform="translate(164 43) scale(.95)"/><use xlink:href="#lucide-redo" transform="translate(201 43) scale(.95)"/></g>
    <path d="M238 43v24M1248 43v24" stroke="#363d44"/>
    <text x="261" y="60" fill="#aab5bb" font-family="Segoe UI, sans-serif" font-size="11">Brush</text>
    <rect x="316" y="47" width="84" height="20" rx="3" fill="#252b31" stroke="#424b53"/>
    <text x="327" y="61" fill="#e1e7e9" font-family="Segoe UI, sans-serif" font-size="11">Soft round</text>
    <rect x="415" y="47" width="62" height="20" rx="3" fill="#252b31" stroke="#424b53"/>
    <text x="428" y="61" fill="#e1e7e9" font-family="Segoe UI, sans-serif" font-size="11">24 px</text>
    <rect x="492" y="47" width="64" height="20" rx="3" fill="#252b31" stroke="#424b53"/>
    <text x="505" y="61" fill="#e1e7e9" font-family="Segoe UI, sans-serif" font-size="11">100%</text>
    <path d="M1269 43v24" stroke="#363d44"/>
    <text x="1290" y="60" fill="#78838b" font-family="Segoe UI, sans-serif" font-size="11">stabilizer</text>
    <rect x="1355" y="50" width="66" height="14" rx="7" fill="#243035"/><circle cx="1412" cy="57" r="8" fill="#39d6e2"/>
    <rect x="1446" y="47" width="116" height="20" rx="3" fill="#20262b" stroke="#3e4850"/>
    <text x="1461" y="61" fill="#b9c4c9" font-family="Segoe UI, sans-serif" font-size="11">100%  ·  0°</text>
  </g>

  <g inkscape:groupmode="layer" inkscape:label="Tool Rail" id="tool-rail">
    <rect x="0" y="76" width="76" height="968" fill="#171b1f"/><path d="M76 76v968" stroke="#353c43"/>
    <g color="#aeb9bf"><use xlink:href="#lucide-pencil" transform="translate(26 113) scale(1)"/></g>
    <g color="#aeb9bf"><use xlink:href="#lucide-highlighter" transform="translate(26 167) scale(1)"/></g>
    <rect x="11" y="208" width="54" height="54" rx="7" fill="#1b444c" stroke="#39d6e2"/>
    <path d="M13 218v34" stroke="#45e3ec" stroke-width="2"/>
    <g color="#effeff"><use xlink:href="#lucide-paintbrush" transform="translate(26 223) scale(1)"/></g>
    <g color="#aeb9bf"><use xlink:href="#lucide-eraser" transform="translate(26 277) scale(1)"/></g>
    <path d="M18 336h40" stroke="#353d44"/>
    <g opacity=".38" color="#9ba5ac"><circle cx="38" cy="375" r="10" fill="none" stroke="currentColor" stroke-width="2"/><path d="M38 359v32M22 375h32" stroke="currentColor" stroke-width="2"/></g>
    <g opacity=".38" color="#9ba5ac"><path d="M26 432c4-10 16-10 21-3 5 6 0 14-7 17-7 3-14-4-14-10z" fill="none" stroke="currentColor" stroke-width="2"/></g>
    <circle cx="57" cy="115" r="2.5" fill="#ca8462"/><circle cx="57" cy="169" r="2.5" fill="#ca8462"/><circle cx="57" cy="279" r="2.5" fill="#ca8462"/>
    <text x="38" y="998" text-anchor="middle" fill="#66727a" font-family="Segoe UI, sans-serif" font-size="10">TAB</text>
  </g>

  <g inkscape:groupmode="layer" inkscape:label="Canvas Matte" id="canvas-matte">
    <rect x="77" y="77" width="1516" height="967" fill="#111416"/>
    <path d="M110 118h1440M110 1001h1440" stroke="#1c2226"/>
    <path d="M116 147h24m-12-12v24M1541 147h-24m12-12v24M116 972h24m-12-12v24M1541 972h-24m12-12v24" stroke="#334149" stroke-width="1.5"/>
    <text x="129" y="129" fill="#65727a" font-family="Segoe UI, sans-serif" font-size="10">CANVAS · 100%</text>
  </g>

  <g inkscape:groupmode="layer" inkscape:label="Drawable Canvas" id="drawable-canvas">
    <rect x="164" y="158" width="1356" height="778" rx="2" fill="#050607"/>
    <rect x="172" y="166" width="1340" height="762" fill="url(#checker)"/>
    <rect x="172" y="166" width="1340" height="762" fill="url(#canvasGlaze)"/>
  </g>

  <g inkscape:groupmode="layer" inkscape:label="Artwork Sample" id="artwork-sample">
    <path d="M352 698 C429 642 459 571 535 556 C636 536 678 635 766 592 C853 548 860 419 965 391 C1059 365 1110 432 1196 414 C1263 400 1328 334 1400 293" fill="none" stroke="#102b35" stroke-opacity=".18" stroke-width="53" stroke-linecap="round"/>
    <path d="M352 698 C429 642 459 571 535 556 C636 536 678 635 766 592 C853 548 860 419 965 391 C1059 365 1110 432 1196 414 C1263 400 1328 334 1400 293" fill="none" stroke="url(#strokeCyan)" stroke-width="32" stroke-linecap="round"/>
    <path d="M352 698 C429 642 459 571 535 556 C636 536 678 635 766 592 C853 548 860 419 965 391 C1059 365 1110 432 1196 414 C1263 400 1328 334 1400 293" fill="none" stroke="#d6fcff" stroke-opacity=".62" stroke-width="5" stroke-linecap="round"/>
    <path d="M424 750 C507 766 584 743 655 700 C709 668 739 655 785 669" fill="none" stroke="url(#strokeWarm)" stroke-width="17" stroke-linecap="round"/>
    <path d="M424 750 C507 766 584 743 655 700 C709 668 739 655 785 669" fill="none" stroke="#fff3d6" stroke-opacity=".58" stroke-width="2.5" stroke-linecap="round"/>
    <path d="M855 727c40-7 93-2 138 21 53 27 94 30 143 8" fill="none" stroke="#263944" stroke-width="10" stroke-linecap="round" opacity=".8"/>
    <circle cx="347" cy="699" r="13" fill="#34dfe8"/><circle cx="347" cy="699" r="5" fill="#efffff"/>
    <text x="289" y="780" fill="#5c7079" font-family="Segoe UI, sans-serif" font-size="11">pressure study</text>
  </g>

  <g inkscape:groupmode="layer" inkscape:label="Color Panel" id="color-panel">
    <rect x="1594" y="76" width="326" height="516" fill="#1a1e22"/><path d="M1594 76v968M1594 592h326" stroke="#384048"/>
    <text x="1618" y="109" fill="#dfe6e9" font-family="Segoe UI, sans-serif" font-size="12" font-weight="600">Color</text>
    <circle cx="1669" cy="199" r="65" fill="none" stroke="#ee5961" stroke-width="16" stroke-dasharray="14 6" transform="rotate(-76 1669 199)"/>
    <circle cx="1669" cy="199" r="65" fill="none" stroke="#e7d85c" stroke-width="16" stroke-dasharray="25 37" transform="rotate(9 1669 199)"/>
    <circle cx="1669" cy="199" r="65" fill="none" stroke="#63d679" stroke-width="16" stroke-dasharray="25 37" transform="rotate(73 1669 199)"/>
    <circle cx="1669" cy="199" r="65" fill="none" stroke="#38d5df" stroke-width="16" stroke-dasharray="25 37" transform="rotate(137 1669 199)"/>
    <circle cx="1669" cy="199" r="65" fill="none" stroke="#5f9df0" stroke-width="16" stroke-dasharray="25 37" transform="rotate(201 1669 199)"/>
    <circle cx="1669" cy="199" r="65" fill="none" stroke="#be76e2" stroke-width="16" stroke-dasharray="25 37" transform="rotate(265 1669 199)"/>
    <circle cx="1669" cy="199" r="65" fill="#1c2226" stroke="#424d55"/>
    <circle cx="1713" cy="153" r="7" fill="#37dce7" stroke="#ffffff" stroke-width="3"/>
    <rect x="1756" y="139" width="132" height="120" rx="3" fill="url(#svSquare)" stroke="#4b5860"/>
    <circle cx="1833" cy="183" r="6" fill="none" stroke="#fff" stroke-width="2"/>
    <rect x="1618" y="290" width="40" height="40" rx="3" fill="#24c7dc" stroke="#efffff" stroke-width="2"/>
    <rect x="1630" y="302" width="40" height="40" rx="3" fill="#f6f4ee" stroke="#68737b"/>
    <text x="1687" y="306" fill="#849199" font-family="Segoe UI, sans-serif" font-size="10">#24C7DC</text>
    <text x="1687" y="326" fill="#c3cbd0" font-family="Segoe UI, sans-serif" font-size="13">Cyan ink</text>
    <text x="1618" y="381" fill="#aeb8be" font-family="Segoe UI, sans-serif" font-size="11">Recent</text>
    <g stroke="#657078" stroke-width="1">
      <rect x="1618" y="398" width="28" height="28" rx="3" fill="#24c7dc"/><rect x="1654" y="398" width="28" height="28" rx="3" fill="#233942"/><rect x="1690" y="398" width="28" height="28" rx="3" fill="#f2f4f1"/><rect x="1726" y="398" width="28" height="28" rx="3" fill="#f0a75e"/><rect x="1762" y="398" width="28" height="28" rx="3" fill="#e57168"/><rect x="1798" y="398" width="28" height="28" rx="3" fill="#a576d5"/><rect x="1834" y="398" width="28" height="28" rx="3" fill="#7ecb78"/>
      <rect x="1618" y="434" width="28" height="28" rx="3" fill="#1e6f88"/><rect x="1654" y="434" width="28" height="28" rx="3" fill="#c95c86"/><rect x="1690" y="434" width="28" height="28" rx="3" fill="#e4d260"/><rect x="1726" y="434" width="28" height="28" rx="3" fill="#b1b6be"/><rect x="1762" y="434" width="28" height="28" rx="3" fill="#5c6872"/>
    </g>
  </g>

  <g inkscape:groupmode="layer" inkscape:label="Layers Panel" id="layers-panel">
    <rect x="1594" y="592" width="326" height="452" fill="#181c20"/>
    <g color="#d5dde1"><use xlink:href="#lucide-layers" transform="translate(1615 613) scale(.75)"/></g><text x="1645" y="631" fill="#dfe5e8" font-family="Segoe UI, sans-serif" font-size="12" font-weight="600">Layers</text>
    <rect x="1814" y="609" width="28" height="28" rx="4" fill="#252b30" stroke="#465159"/><path d="M1822 617h12v12h-12z" fill="#f4f5f2" stroke="#8a949b"/><path d="M1818 623h12" stroke="#bac4c9"/>
    <rect x="1852" y="609" width="28" height="28" rx="4" fill="#20383e" stroke="#3a9ca6"/><g color="#eaffff"><use xlink:href="#lucide-plus" transform="translate(1854 611) scale(.83)"/></g>
    <path d="M1608 650h298" stroke="#323a41"/>
    <rect x="1607" y="660" width="300" height="62" rx="4" fill="#203238" stroke="#3e9da8"/>
    <g color="#c9d4d8"><use xlink:href="#lucide-eye" transform="translate(1618 679) scale(.72)"/></g>
    <rect x="1656" y="672" width="38" height="38" fill="url(#checker)" stroke="#78909a"/><path d="M1660 700c8-16 18-19 30-18" stroke="#37cfe0" stroke-width="5" fill="none"/>
    <text x="1711" y="686" fill="#f2f6f7" font-family="Segoe UI, sans-serif" font-size="12">Ink</text><text x="1711" y="704" fill="#91a1a8" font-family="Segoe UI, sans-serif" font-size="10">Normal · 100%</text>
    <rect x="1607" y="729" width="300" height="56" rx="4" fill="#1d2226"/>
    <g color="#9faab0"><use xlink:href="#lucide-eye" transform="translate(1618 745) scale(.72)"/></g>
    <rect x="1656" y="738" width="38" height="38" fill="#f6f7f6" stroke="#78909a"/><text x="1711" y="760" fill="#cdd5d9" font-family="Segoe UI, sans-serif" font-size="12">White</text>
    <path d="M1608 810h298" stroke="#323a41"/><text x="1618" y="842" fill="#79868e" font-family="Segoe UI, sans-serif" font-size="10">Actions apply to the selected layer</text>
  </g>

  <g inkscape:groupmode="layer" inkscape:label="Status" id="status">
    <rect y="1044" width="1920" height="36" fill="#171b1f"/><path d="M0 1044h1920" stroke="#374048"/>
    <circle cx="22" cy="1062" r="4" fill="#44d5a0"/><text x="34" y="1066" fill="#8e9aa1" font-family="Segoe UI, sans-serif" font-size="11">Ready</text>
    <text x="131" y="1066" fill="#69757d" font-family="Segoe UI, sans-serif" font-size="11">Brush · 24 px</text>
    <g color="#aab5bb"><use xlink:href="#lucide-minus" transform="translate(1662 1050) scale(.65)"/><use xlink:href="#lucide-plus" transform="translate(1749 1050) scale(.65)"/><use xlink:href="#lucide-rotate" transform="translate(1810 1050) scale(.65)"/></g>
    <text x="1703" y="1066" text-anchor="middle" fill="#e1e7e9" font-family="Segoe UI, sans-serif" font-size="12">100%</text>
    <path d="M1779 1051v21M1795 1051v21" stroke="#3c464d"/><text x="1840" y="1066" fill="#bac4c9" font-family="Segoe UI, sans-serif" font-size="12">0°</text>
  </g>
</svg>
